<svg viewBox="0 0 126 376" fill="none" xmlns="http://www.w3.org/2000/svg">
    <path d="M10.4971 347.554L115.296 347.554C120.85 347.554 125.371 342.998 125.371 337.391L125.371 250.02L121.345 250.02L121.345 337.391C121.345 340.749 118.634 343.487 115.296 343.487C111.958 343.487 109.247 340.749 109.247 337.391L109.247 250.02L0.421872 250.02L0.421875 337.391C0.421875 342.998 4.9436 347.554 10.4971 347.554ZM105.221 254.087L105.221 337.391C105.221 339.673 105.979 341.784 107.244 343.487L10.4971 343.487C7.15894 343.487 4.44793 340.749 4.44793 337.391L4.44793 254.087L105.221 254.087V254.087Z" fill="#F3F3F3"/>
    <path d="M113.283 250.021L113.283 254.088L117.309 254.088L117.309 250.021L113.283 250.021Z" fill="#F3F3F3"/>
    <path d="M113.283 258.147L113.283 335.363L117.309 335.363L117.309 258.147L113.283 258.147Z" fill="#F3F3F3"/>
    <path d="M17.9119 376L113.283 376C119.949 376 125.371 370.531 125.371 363.807C125.371 357.083 119.949 351.614 113.283 351.614L17.9119 351.614L0.988281 363.807L17.9119 376ZM7.91755 363.807L16.5463 357.597L16.5463 370.018L7.91755 363.807ZM101.195 355.681L105.221 355.681L105.221 371.933L101.195 371.933L101.195 355.681ZM97.1584 371.933L20.5723 371.933L20.5723 365.837L89.0962 365.837L89.0962 361.77L20.5723 361.77L20.5723 355.673L97.1584 355.673L97.1584 361.77L93.1324 361.77L93.1324 365.837L97.1584 365.837L97.1584 371.933ZM113.283 371.933L109.257 371.933L109.257 355.681L113.283 355.681C117.734 355.681 121.345 359.324 121.345 363.807C121.345 368.29 117.724 371.933 113.283 371.933Z" fill="#F3F3F3"/>
    <path d="M78.3331 292.508L78.3331 332.672L59.7708 332.672L20.7949 300.527L20.7949 271.105L58.9514 271.105L58.9514 261.357L78.3331 261.357L78.3331 271.105L89.2075 271.105L89.2075 292.508L78.3331 292.508V292.508ZM38.639 292.508L58.9514 309.289L58.9514 292.516L38.639 292.516L38.639 292.508Z" fill="#F3F3F3"/>
    <path d="M42.2715 236.278C40.3192 236.042 38.559 235.871 37.0012 235.765L37.0012 218.788C37.9723 218.837 39.0952 218.918 40.3697 219.024C41.6342 219.13 42.7267 219.236 43.6371 219.342L43.6371 219.024C41.5533 217.818 39.7324 216.131 38.1746 213.955C36.6168 211.779 35.8379 209.382 35.8379 206.766C35.8379 204.46 36.2627 202.512 37.1024 200.906C37.9521 199.309 39.0749 197.996 40.4709 196.978C41.8669 195.959 43.4854 195.225 45.2961 194.777C47.1169 194.329 49.0086 194.109 50.9508 194.109C51.9927 194.109 53.0852 194.149 54.2182 194.223C55.3612 194.304 56.4436 194.418 57.4855 194.573L88.3182 198.893L88.3182 216.579L61.0968 212.724C60.5101 212.618 59.9133 212.553 59.2962 212.528C58.6792 212.504 58.1734 212.488 57.7789 212.488C56.474 212.488 55.4219 212.773 54.6127 213.352C53.8034 213.93 53.3887 214.843 53.3887 216.106C53.3887 217.313 54.0563 218.372 55.3916 219.293C56.7268 220.214 58.659 220.85 61.198 221.217L88.3182 225.145L88.3182 242.75L47.0461 236.93C45.8221 236.735 44.2238 236.515 42.2715 236.278Z" fill="#F3F3F3"/>
    <path d="M89.8862 168.712C89.8862 171.858 89.4006 174.792 88.4194 177.514C87.4483 180.237 85.9815 182.625 84.0292 184.67C82.0768 186.716 79.6693 188.314 76.8065 189.463C73.9438 190.62 70.6562 191.191 66.9538 191.191C62.6648 191.191 58.5982 190.612 54.7543 189.463C50.9204 188.314 47.5721 186.643 44.7094 184.475C41.8466 182.299 39.5908 179.625 37.9318 176.455C36.2729 173.284 35.4434 169.658 35.4434 165.566C35.4434 162.371 35.9289 159.38 36.9101 156.601C37.8812 153.822 39.348 151.409 41.3004 149.372C43.2527 147.326 45.6602 145.72 48.523 144.538C51.3857 143.357 54.6733 142.77 58.3757 142.77C62.6648 142.77 66.7313 143.348 70.5752 144.498C74.4091 145.655 77.7675 147.326 80.6202 149.526C83.4829 151.727 85.7387 154.441 87.3977 157.66C89.0567 160.888 89.8862 164.572 89.8862 168.712ZM60.7124 159.91C58.6286 159.91 56.8786 160.431 55.4421 161.483C54.0158 162.534 53.2976 164.075 53.2976 166.12C53.2976 167.327 53.6112 168.411 54.2282 169.38C54.8453 170.35 55.6647 171.19 56.6661 171.899C57.6777 172.608 58.8612 173.146 60.2269 173.513C61.5925 173.879 63.0289 174.059 64.5159 174.059C66.6605 174.059 68.4307 173.537 69.8368 172.486C71.2328 171.434 71.9308 169.918 71.9308 167.93C71.9308 166.675 71.6374 165.542 71.0507 164.547C70.464 163.553 69.6547 162.714 68.6128 162.029C67.5709 161.352 66.3873 160.823 65.0521 160.456C63.7168 160.089 62.2702 159.91 60.7124 159.91Z" fill="#F3F3F3"/>
    <path d="M89.8862 118.398C89.8862 121.544 89.4006 124.478 88.4194 127.201C87.4483 129.923 85.9815 132.311 84.0292 134.357C82.0768 136.402 79.6693 138 76.8065 139.149C73.9438 140.306 70.6562 140.877 66.9538 140.877C62.6648 140.877 58.5982 140.298 54.7543 139.149C50.9204 138 47.5721 136.329 44.7094 134.161C41.8466 131.985 39.5908 129.312 37.9318 126.141C36.2729 122.971 35.4434 119.344 35.4434 115.252C35.4434 112.057 35.9289 109.066 36.9101 106.287C37.8812 103.508 39.348 101.095 41.3004 99.0576C43.2527 97.0119 45.6602 95.4063 48.523 94.2245C51.3857 93.0427 54.6733 92.4559 58.3757 92.4559C62.6648 92.4559 66.7313 93.0346 70.5752 94.1838C74.4091 95.3411 77.7675 97.0119 80.6202 99.2125C83.4829 101.413 85.7387 104.127 87.3977 107.346C89.0567 110.582 89.8862 114.258 89.8862 118.398ZM60.7124 109.596C58.6286 109.596 56.8786 110.118 55.4421 111.169C54.0158 112.22 53.2976 113.761 53.2976 115.806C53.2976 117.013 53.6112 118.097 54.2282 119.067C54.8453 120.036 55.6647 120.876 56.6661 121.585C57.6777 122.294 58.8612 122.832 60.2269 123.199C61.5925 123.566 63.0289 123.745 64.5159 123.745C66.6605 123.745 68.4307 123.223 69.8368 122.172C71.2328 121.12 71.9308 119.605 71.9308 117.616C71.9308 116.361 71.6374 115.228 71.0507 114.233C70.464 113.239 69.6547 112.4 68.6128 111.715C67.5709 111.039 66.3873 110.509 65.0521 110.142C63.7168 109.783 62.2702 109.596 60.7124 109.596Z" fill="#F3F3F3"/>
    <path d="M35.8277 56.4564C35.8277 53.7342 36.3942 51.338 37.5372 49.2678C38.6803 47.1976 40.2381 45.4535 42.2208 44.0435C44.2035 42.6253 46.5301 41.5658 49.2007 40.8567C51.8712 40.1476 54.734 39.7972 57.7889 39.7972C62.1488 39.7972 66.2659 40.3759 70.1301 41.525C74.0044 42.6824 77.3628 44.288 80.2256 46.3582C83.0883 48.4283 85.3644 50.8653 87.0537 53.669C88.743 56.4727 89.5927 59.529 89.5927 62.8299C89.5927 65.5032 88.9757 67.9157 87.7416 70.0592C86.5074 72.2109 84.8788 73.8328 82.8658 74.9331L82.8658 75.0879L88.3283 75.8704L88.3283 91.7471L14.5645 81.2903L14.5645 63.6857L41.4925 67.4593L41.4925 67.3044C39.8032 66.0493 38.4375 64.4355 37.3956 62.4713C36.3537 60.5071 35.8277 58.5021 35.8277 56.4564ZM60.7124 56.9291C58.6285 56.9291 56.8785 57.467 55.4421 58.5429C54.0158 59.6187 53.2975 61.1754 53.2975 63.2211C53.2975 64.4274 53.6111 65.5113 54.2282 66.4812C54.8452 67.4511 55.6646 68.2906 56.6661 68.9997C57.6776 69.7087 58.8612 70.2548 60.2268 70.6542C61.5924 71.0535 63.0289 71.241 64.5159 71.241C66.6604 71.241 68.4307 70.7031 69.8367 69.6273C71.2327 68.5514 71.9307 67.0191 71.9307 65.0305C71.9307 63.7753 71.6373 62.6424 71.0506 61.6481C70.4639 60.6538 69.6547 59.798 68.6127 59.0971C67.5708 58.388 66.3873 57.8501 65.052 57.4833C63.7167 57.1166 62.2702 56.9291 60.7124 56.9291Z" fill="#F3F3F3"/>
    <path d="M69.7858 33.188C71.4751 31.8269 72.7497 30.2538 73.5893 28.4689C74.439 26.684 74.8538 25.0376 74.8538 23.5135C74.8538 22.4622 74.6717 21.639 74.3177 21.0359C73.9636 20.4327 73.387 20.1312 72.6081 20.1312C71.8292 20.1312 71.1818 20.5387 70.6558 21.3537C70.1399 22.1687 69.6442 23.2038 69.189 24.459C68.5416 26.2928 67.793 27.931 66.9433 29.3736C66.1037 30.8162 65.0921 32.0469 63.9187 33.0657C62.7453 34.0845 61.3797 34.8751 59.8218 35.4211C58.264 35.9672 56.4432 36.2443 54.3593 36.2443C51.1729 36.2443 48.3708 35.6819 45.9734 34.5572C43.5659 33.4325 41.5832 31.941 40.0254 30.0745C38.4676 28.2163 37.2941 26.1217 36.5152 23.7825C35.7363 21.4515 35.3418 19.1042 35.3418 16.7488C35.3418 13.4968 35.9083 10.3671 37.0514 7.35153C38.1843 4.33592 39.8028 1.89084 41.8765 -2.64479e-05L54.7539 9.03864C53.5804 9.92702 52.5891 11.1577 51.7798 12.7307C50.9706 14.3037 50.5558 15.8523 50.5558 17.3682C50.5558 18.4196 50.7379 19.2672 51.092 19.9193C51.446 20.5713 52.0226 20.9055 52.8015 20.9055C53.4489 20.9055 53.9547 20.6283 54.3189 20.0823C54.6729 19.5362 55.0877 18.5745 55.5429 17.2134C56.1296 15.2736 56.8579 13.505 57.738 11.9075C58.6181 10.3101 59.6701 8.93268 60.9042 7.78349C62.1383 6.6343 63.6051 5.73777 65.2944 5.11019C66.9838 4.48262 68.9664 4.16476 71.2425 4.16476C74.6919 4.16476 77.6154 4.78417 80.0229 6.01486C82.4305 7.24556 84.3828 8.81857 85.8799 10.7339C87.3771 12.6492 88.4493 14.7683 89.0967 17.0993C89.7441 19.4302 90.0678 21.7286 90.0678 23.9781C90.0678 26.9693 89.5418 30.1071 88.51 33.408C87.4681 36.7089 85.6473 39.6185 83.0475 42.137L69.7858 33.188Z" fill="#F3F3F3"/>
</svg>
